%TF.GenerationSoftware,KiCad,Pcbnew,8.0.4*%
%TF.CreationDate,2024-09-11T11:48:57+03:00*%
%TF.ProjectId,LPF_146MHz,4c50465f-3134-4364-9d48-7a2e6b696361,rev?*%
%TF.SameCoordinates,Original*%
%TF.FileFunction,Drillmap*%
%TF.FilePolarity,Positive*%
%FSLAX45Y45*%
G04 Gerber Fmt 4.5, Leading zero omitted, Abs format (unit mm)*
G04 Created by KiCad (PCBNEW 8.0.4) date 2024-09-11 11:48:57*
%MOMM*%
%LPD*%
G01*
G04 APERTURE LIST*
%ADD10C,0.050000*%
%ADD11C,0.200000*%
%ADD12C,0.100000*%
G04 APERTURE END LIST*
D10*
X10403840Y-10434320D02*
X13568680Y-10434320D01*
X10403840Y-9707880D02*
X10403840Y-10434320D01*
X13568680Y-9707880D02*
X13568680Y-10434320D01*
X10403840Y-9707880D02*
X13568680Y-9707880D01*
D11*
D12*
X10739360Y-10307560D02*
X10769360Y-10337560D01*
X10769360Y-10307560D02*
X10739360Y-10337560D01*
X10754600Y-9804640D02*
X10784600Y-9834640D01*
X10784600Y-9804640D02*
X10754600Y-9834640D01*
X11435320Y-10312640D02*
X11465320Y-10342640D01*
X11465320Y-10312640D02*
X11435320Y-10342640D01*
X11506440Y-10312640D02*
X11536440Y-10342640D01*
X11536440Y-10312640D02*
X11506440Y-10342640D01*
X11597880Y-10312640D02*
X11627880Y-10342640D01*
X11627880Y-10312640D02*
X11597880Y-10342640D01*
X11669000Y-10312640D02*
X11699000Y-10342640D01*
X11699000Y-10312640D02*
X11669000Y-10342640D01*
X11750280Y-10312640D02*
X11780280Y-10342640D01*
X11780280Y-10312640D02*
X11750280Y-10342640D01*
X11821400Y-10312640D02*
X11851400Y-10342640D01*
X11851400Y-10312640D02*
X11821400Y-10342640D01*
X12207480Y-10312640D02*
X12237480Y-10342640D01*
X12237480Y-10312640D02*
X12207480Y-10342640D01*
X12278600Y-10312640D02*
X12308600Y-10342640D01*
X12308600Y-10312640D02*
X12278600Y-10342640D01*
X12364960Y-10312640D02*
X12394960Y-10342640D01*
X12394960Y-10312640D02*
X12364960Y-10342640D01*
X12436080Y-10312640D02*
X12466080Y-10342640D01*
X12466080Y-10312640D02*
X12436080Y-10342640D01*
X12517360Y-10312640D02*
X12547360Y-10342640D01*
X12547360Y-10312640D02*
X12517360Y-10342640D01*
X12588480Y-10312640D02*
X12618480Y-10342640D01*
X12618480Y-10312640D02*
X12588480Y-10342640D01*
X13187920Y-9809720D02*
X13217920Y-9839720D01*
X13217920Y-9809720D02*
X13187920Y-9839720D01*
X13203160Y-10307560D02*
X13233160Y-10337560D01*
X13233160Y-10307560D02*
X13203160Y-10337560D01*
D11*
X10662117Y-10748304D02*
X10662117Y-10548304D01*
X10662117Y-10548304D02*
X10709736Y-10548304D01*
X10709736Y-10548304D02*
X10738307Y-10557828D01*
X10738307Y-10557828D02*
X10757355Y-10576875D01*
X10757355Y-10576875D02*
X10766879Y-10595923D01*
X10766879Y-10595923D02*
X10776403Y-10634018D01*
X10776403Y-10634018D02*
X10776403Y-10662590D01*
X10776403Y-10662590D02*
X10766879Y-10700685D01*
X10766879Y-10700685D02*
X10757355Y-10719732D01*
X10757355Y-10719732D02*
X10738307Y-10738780D01*
X10738307Y-10738780D02*
X10709736Y-10748304D01*
X10709736Y-10748304D02*
X10662117Y-10748304D01*
X10862117Y-10748304D02*
X10862117Y-10614970D01*
X10862117Y-10653066D02*
X10871641Y-10634018D01*
X10871641Y-10634018D02*
X10881164Y-10624494D01*
X10881164Y-10624494D02*
X10900212Y-10614970D01*
X10900212Y-10614970D02*
X10919260Y-10614970D01*
X10985926Y-10748304D02*
X10985926Y-10614970D01*
X10985926Y-10548304D02*
X10976403Y-10557828D01*
X10976403Y-10557828D02*
X10985926Y-10567351D01*
X10985926Y-10567351D02*
X10995450Y-10557828D01*
X10995450Y-10557828D02*
X10985926Y-10548304D01*
X10985926Y-10548304D02*
X10985926Y-10567351D01*
X11109736Y-10748304D02*
X11090688Y-10738780D01*
X11090688Y-10738780D02*
X11081164Y-10719732D01*
X11081164Y-10719732D02*
X11081164Y-10548304D01*
X11214498Y-10748304D02*
X11195450Y-10738780D01*
X11195450Y-10738780D02*
X11185926Y-10719732D01*
X11185926Y-10719732D02*
X11185926Y-10548304D01*
X11443069Y-10748304D02*
X11443069Y-10548304D01*
X11443069Y-10548304D02*
X11509736Y-10691161D01*
X11509736Y-10691161D02*
X11576402Y-10548304D01*
X11576402Y-10548304D02*
X11576402Y-10748304D01*
X11757355Y-10748304D02*
X11757355Y-10643542D01*
X11757355Y-10643542D02*
X11747831Y-10624494D01*
X11747831Y-10624494D02*
X11728783Y-10614970D01*
X11728783Y-10614970D02*
X11690688Y-10614970D01*
X11690688Y-10614970D02*
X11671641Y-10624494D01*
X11757355Y-10738780D02*
X11738307Y-10748304D01*
X11738307Y-10748304D02*
X11690688Y-10748304D01*
X11690688Y-10748304D02*
X11671641Y-10738780D01*
X11671641Y-10738780D02*
X11662117Y-10719732D01*
X11662117Y-10719732D02*
X11662117Y-10700685D01*
X11662117Y-10700685D02*
X11671641Y-10681637D01*
X11671641Y-10681637D02*
X11690688Y-10672113D01*
X11690688Y-10672113D02*
X11738307Y-10672113D01*
X11738307Y-10672113D02*
X11757355Y-10662590D01*
X11852593Y-10614970D02*
X11852593Y-10814970D01*
X11852593Y-10624494D02*
X11871641Y-10614970D01*
X11871641Y-10614970D02*
X11909736Y-10614970D01*
X11909736Y-10614970D02*
X11928783Y-10624494D01*
X11928783Y-10624494D02*
X11938307Y-10634018D01*
X11938307Y-10634018D02*
X11947831Y-10653066D01*
X11947831Y-10653066D02*
X11947831Y-10710209D01*
X11947831Y-10710209D02*
X11938307Y-10729256D01*
X11938307Y-10729256D02*
X11928783Y-10738780D01*
X11928783Y-10738780D02*
X11909736Y-10748304D01*
X11909736Y-10748304D02*
X11871641Y-10748304D01*
X11871641Y-10748304D02*
X11852593Y-10738780D01*
X12033545Y-10729256D02*
X12043069Y-10738780D01*
X12043069Y-10738780D02*
X12033545Y-10748304D01*
X12033545Y-10748304D02*
X12024022Y-10738780D01*
X12024022Y-10738780D02*
X12033545Y-10729256D01*
X12033545Y-10729256D02*
X12033545Y-10748304D01*
X12033545Y-10624494D02*
X12043069Y-10634018D01*
X12043069Y-10634018D02*
X12033545Y-10643542D01*
X12033545Y-10643542D02*
X12024022Y-10634018D01*
X12024022Y-10634018D02*
X12033545Y-10624494D01*
X12033545Y-10624494D02*
X12033545Y-10643542D01*
D12*
X10371340Y-11061820D02*
X10401340Y-11091820D01*
X10401340Y-11061820D02*
X10371340Y-11091820D01*
D11*
X10700212Y-10968304D02*
X10719260Y-10968304D01*
X10719260Y-10968304D02*
X10738307Y-10977828D01*
X10738307Y-10977828D02*
X10747831Y-10987351D01*
X10747831Y-10987351D02*
X10757355Y-11006399D01*
X10757355Y-11006399D02*
X10766879Y-11044494D01*
X10766879Y-11044494D02*
X10766879Y-11092113D01*
X10766879Y-11092113D02*
X10757355Y-11130209D01*
X10757355Y-11130209D02*
X10747831Y-11149256D01*
X10747831Y-11149256D02*
X10738307Y-11158780D01*
X10738307Y-11158780D02*
X10719260Y-11168304D01*
X10719260Y-11168304D02*
X10700212Y-11168304D01*
X10700212Y-11168304D02*
X10681164Y-11158780D01*
X10681164Y-11158780D02*
X10671641Y-11149256D01*
X10671641Y-11149256D02*
X10662117Y-11130209D01*
X10662117Y-11130209D02*
X10652593Y-11092113D01*
X10652593Y-11092113D02*
X10652593Y-11044494D01*
X10652593Y-11044494D02*
X10662117Y-11006399D01*
X10662117Y-11006399D02*
X10671641Y-10987351D01*
X10671641Y-10987351D02*
X10681164Y-10977828D01*
X10681164Y-10977828D02*
X10700212Y-10968304D01*
X10852593Y-11149256D02*
X10862117Y-11158780D01*
X10862117Y-11158780D02*
X10852593Y-11168304D01*
X10852593Y-11168304D02*
X10843069Y-11158780D01*
X10843069Y-11158780D02*
X10852593Y-11149256D01*
X10852593Y-11149256D02*
X10852593Y-11168304D01*
X10928784Y-10968304D02*
X11052593Y-10968304D01*
X11052593Y-10968304D02*
X10985926Y-11044494D01*
X10985926Y-11044494D02*
X11014498Y-11044494D01*
X11014498Y-11044494D02*
X11033545Y-11054018D01*
X11033545Y-11054018D02*
X11043069Y-11063542D01*
X11043069Y-11063542D02*
X11052593Y-11082590D01*
X11052593Y-11082590D02*
X11052593Y-11130209D01*
X11052593Y-11130209D02*
X11043069Y-11149256D01*
X11043069Y-11149256D02*
X11033545Y-11158780D01*
X11033545Y-11158780D02*
X11014498Y-11168304D01*
X11014498Y-11168304D02*
X10957355Y-11168304D01*
X10957355Y-11168304D02*
X10938307Y-11158780D01*
X10938307Y-11158780D02*
X10928784Y-11149256D01*
X11176403Y-10968304D02*
X11195450Y-10968304D01*
X11195450Y-10968304D02*
X11214498Y-10977828D01*
X11214498Y-10977828D02*
X11224022Y-10987351D01*
X11224022Y-10987351D02*
X11233545Y-11006399D01*
X11233545Y-11006399D02*
X11243069Y-11044494D01*
X11243069Y-11044494D02*
X11243069Y-11092113D01*
X11243069Y-11092113D02*
X11233545Y-11130209D01*
X11233545Y-11130209D02*
X11224022Y-11149256D01*
X11224022Y-11149256D02*
X11214498Y-11158780D01*
X11214498Y-11158780D02*
X11195450Y-11168304D01*
X11195450Y-11168304D02*
X11176403Y-11168304D01*
X11176403Y-11168304D02*
X11157355Y-11158780D01*
X11157355Y-11158780D02*
X11147831Y-11149256D01*
X11147831Y-11149256D02*
X11138307Y-11130209D01*
X11138307Y-11130209D02*
X11128784Y-11092113D01*
X11128784Y-11092113D02*
X11128784Y-11044494D01*
X11128784Y-11044494D02*
X11138307Y-11006399D01*
X11138307Y-11006399D02*
X11147831Y-10987351D01*
X11147831Y-10987351D02*
X11157355Y-10977828D01*
X11157355Y-10977828D02*
X11176403Y-10968304D01*
X11366879Y-10968304D02*
X11385926Y-10968304D01*
X11385926Y-10968304D02*
X11404974Y-10977828D01*
X11404974Y-10977828D02*
X11414498Y-10987351D01*
X11414498Y-10987351D02*
X11424022Y-11006399D01*
X11424022Y-11006399D02*
X11433545Y-11044494D01*
X11433545Y-11044494D02*
X11433545Y-11092113D01*
X11433545Y-11092113D02*
X11424022Y-11130209D01*
X11424022Y-11130209D02*
X11414498Y-11149256D01*
X11414498Y-11149256D02*
X11404974Y-11158780D01*
X11404974Y-11158780D02*
X11385926Y-11168304D01*
X11385926Y-11168304D02*
X11366879Y-11168304D01*
X11366879Y-11168304D02*
X11347831Y-11158780D01*
X11347831Y-11158780D02*
X11338307Y-11149256D01*
X11338307Y-11149256D02*
X11328783Y-11130209D01*
X11328783Y-11130209D02*
X11319260Y-11092113D01*
X11319260Y-11092113D02*
X11319260Y-11044494D01*
X11319260Y-11044494D02*
X11328783Y-11006399D01*
X11328783Y-11006399D02*
X11338307Y-10987351D01*
X11338307Y-10987351D02*
X11347831Y-10977828D01*
X11347831Y-10977828D02*
X11366879Y-10968304D01*
X11519260Y-11168304D02*
X11519260Y-11034970D01*
X11519260Y-11054018D02*
X11528783Y-11044494D01*
X11528783Y-11044494D02*
X11547831Y-11034970D01*
X11547831Y-11034970D02*
X11576403Y-11034970D01*
X11576403Y-11034970D02*
X11595450Y-11044494D01*
X11595450Y-11044494D02*
X11604974Y-11063542D01*
X11604974Y-11063542D02*
X11604974Y-11168304D01*
X11604974Y-11063542D02*
X11614498Y-11044494D01*
X11614498Y-11044494D02*
X11633545Y-11034970D01*
X11633545Y-11034970D02*
X11662117Y-11034970D01*
X11662117Y-11034970D02*
X11681164Y-11044494D01*
X11681164Y-11044494D02*
X11690688Y-11063542D01*
X11690688Y-11063542D02*
X11690688Y-11168304D01*
X11785926Y-11168304D02*
X11785926Y-11034970D01*
X11785926Y-11054018D02*
X11795450Y-11044494D01*
X11795450Y-11044494D02*
X11814498Y-11034970D01*
X11814498Y-11034970D02*
X11843069Y-11034970D01*
X11843069Y-11034970D02*
X11862117Y-11044494D01*
X11862117Y-11044494D02*
X11871641Y-11063542D01*
X11871641Y-11063542D02*
X11871641Y-11168304D01*
X11871641Y-11063542D02*
X11881164Y-11044494D01*
X11881164Y-11044494D02*
X11900212Y-11034970D01*
X11900212Y-11034970D02*
X11928783Y-11034970D01*
X11928783Y-11034970D02*
X11947831Y-11044494D01*
X11947831Y-11044494D02*
X11957355Y-11063542D01*
X11957355Y-11063542D02*
X11957355Y-11168304D01*
X12347831Y-10958780D02*
X12176403Y-11215923D01*
X12604974Y-10968304D02*
X12624022Y-10968304D01*
X12624022Y-10968304D02*
X12643069Y-10977828D01*
X12643069Y-10977828D02*
X12652593Y-10987351D01*
X12652593Y-10987351D02*
X12662117Y-11006399D01*
X12662117Y-11006399D02*
X12671641Y-11044494D01*
X12671641Y-11044494D02*
X12671641Y-11092113D01*
X12671641Y-11092113D02*
X12662117Y-11130209D01*
X12662117Y-11130209D02*
X12652593Y-11149256D01*
X12652593Y-11149256D02*
X12643069Y-11158780D01*
X12643069Y-11158780D02*
X12624022Y-11168304D01*
X12624022Y-11168304D02*
X12604974Y-11168304D01*
X12604974Y-11168304D02*
X12585926Y-11158780D01*
X12585926Y-11158780D02*
X12576403Y-11149256D01*
X12576403Y-11149256D02*
X12566879Y-11130209D01*
X12566879Y-11130209D02*
X12557355Y-11092113D01*
X12557355Y-11092113D02*
X12557355Y-11044494D01*
X12557355Y-11044494D02*
X12566879Y-11006399D01*
X12566879Y-11006399D02*
X12576403Y-10987351D01*
X12576403Y-10987351D02*
X12585926Y-10977828D01*
X12585926Y-10977828D02*
X12604974Y-10968304D01*
X12757355Y-11149256D02*
X12766879Y-11158780D01*
X12766879Y-11158780D02*
X12757355Y-11168304D01*
X12757355Y-11168304D02*
X12747831Y-11158780D01*
X12747831Y-11158780D02*
X12757355Y-11149256D01*
X12757355Y-11149256D02*
X12757355Y-11168304D01*
X12890688Y-10968304D02*
X12909736Y-10968304D01*
X12909736Y-10968304D02*
X12928784Y-10977828D01*
X12928784Y-10977828D02*
X12938307Y-10987351D01*
X12938307Y-10987351D02*
X12947831Y-11006399D01*
X12947831Y-11006399D02*
X12957355Y-11044494D01*
X12957355Y-11044494D02*
X12957355Y-11092113D01*
X12957355Y-11092113D02*
X12947831Y-11130209D01*
X12947831Y-11130209D02*
X12938307Y-11149256D01*
X12938307Y-11149256D02*
X12928784Y-11158780D01*
X12928784Y-11158780D02*
X12909736Y-11168304D01*
X12909736Y-11168304D02*
X12890688Y-11168304D01*
X12890688Y-11168304D02*
X12871641Y-11158780D01*
X12871641Y-11158780D02*
X12862117Y-11149256D01*
X12862117Y-11149256D02*
X12852593Y-11130209D01*
X12852593Y-11130209D02*
X12843069Y-11092113D01*
X12843069Y-11092113D02*
X12843069Y-11044494D01*
X12843069Y-11044494D02*
X12852593Y-11006399D01*
X12852593Y-11006399D02*
X12862117Y-10987351D01*
X12862117Y-10987351D02*
X12871641Y-10977828D01*
X12871641Y-10977828D02*
X12890688Y-10968304D01*
X13147831Y-11168304D02*
X13033546Y-11168304D01*
X13090688Y-11168304D02*
X13090688Y-10968304D01*
X13090688Y-10968304D02*
X13071641Y-10996875D01*
X13071641Y-10996875D02*
X13052593Y-11015923D01*
X13052593Y-11015923D02*
X13033546Y-11025447D01*
X13338307Y-11168304D02*
X13224022Y-11168304D01*
X13281165Y-11168304D02*
X13281165Y-10968304D01*
X13281165Y-10968304D02*
X13262117Y-10996875D01*
X13262117Y-10996875D02*
X13243069Y-11015923D01*
X13243069Y-11015923D02*
X13224022Y-11025447D01*
X13452593Y-11054018D02*
X13433546Y-11044494D01*
X13433546Y-11044494D02*
X13424022Y-11034970D01*
X13424022Y-11034970D02*
X13414498Y-11015923D01*
X13414498Y-11015923D02*
X13414498Y-11006399D01*
X13414498Y-11006399D02*
X13424022Y-10987351D01*
X13424022Y-10987351D02*
X13433546Y-10977828D01*
X13433546Y-10977828D02*
X13452593Y-10968304D01*
X13452593Y-10968304D02*
X13490688Y-10968304D01*
X13490688Y-10968304D02*
X13509736Y-10977828D01*
X13509736Y-10977828D02*
X13519260Y-10987351D01*
X13519260Y-10987351D02*
X13528784Y-11006399D01*
X13528784Y-11006399D02*
X13528784Y-11015923D01*
X13528784Y-11015923D02*
X13519260Y-11034970D01*
X13519260Y-11034970D02*
X13509736Y-11044494D01*
X13509736Y-11044494D02*
X13490688Y-11054018D01*
X13490688Y-11054018D02*
X13452593Y-11054018D01*
X13452593Y-11054018D02*
X13433546Y-11063542D01*
X13433546Y-11063542D02*
X13424022Y-11073066D01*
X13424022Y-11073066D02*
X13414498Y-11092113D01*
X13414498Y-11092113D02*
X13414498Y-11130209D01*
X13414498Y-11130209D02*
X13424022Y-11149256D01*
X13424022Y-11149256D02*
X13433546Y-11158780D01*
X13433546Y-11158780D02*
X13452593Y-11168304D01*
X13452593Y-11168304D02*
X13490688Y-11168304D01*
X13490688Y-11168304D02*
X13509736Y-11158780D01*
X13509736Y-11158780D02*
X13519260Y-11149256D01*
X13519260Y-11149256D02*
X13528784Y-11130209D01*
X13528784Y-11130209D02*
X13528784Y-11092113D01*
X13528784Y-11092113D02*
X13519260Y-11073066D01*
X13519260Y-11073066D02*
X13509736Y-11063542D01*
X13509736Y-11063542D02*
X13490688Y-11054018D01*
X13604974Y-10968304D02*
X13604974Y-11006399D01*
X13681165Y-10968304D02*
X13681165Y-11006399D01*
X13976403Y-11244494D02*
X13966879Y-11234970D01*
X13966879Y-11234970D02*
X13947831Y-11206399D01*
X13947831Y-11206399D02*
X13938308Y-11187351D01*
X13938308Y-11187351D02*
X13928784Y-11158780D01*
X13928784Y-11158780D02*
X13919260Y-11111161D01*
X13919260Y-11111161D02*
X13919260Y-11073066D01*
X13919260Y-11073066D02*
X13928784Y-11025447D01*
X13928784Y-11025447D02*
X13938308Y-10996875D01*
X13938308Y-10996875D02*
X13947831Y-10977828D01*
X13947831Y-10977828D02*
X13966879Y-10949256D01*
X13966879Y-10949256D02*
X13976403Y-10939732D01*
X14157355Y-11168304D02*
X14043069Y-11168304D01*
X14100212Y-11168304D02*
X14100212Y-10968304D01*
X14100212Y-10968304D02*
X14081165Y-10996875D01*
X14081165Y-10996875D02*
X14062117Y-11015923D01*
X14062117Y-11015923D02*
X14043069Y-11025447D01*
X14328784Y-10968304D02*
X14290688Y-10968304D01*
X14290688Y-10968304D02*
X14271641Y-10977828D01*
X14271641Y-10977828D02*
X14262117Y-10987351D01*
X14262117Y-10987351D02*
X14243069Y-11015923D01*
X14243069Y-11015923D02*
X14233546Y-11054018D01*
X14233546Y-11054018D02*
X14233546Y-11130209D01*
X14233546Y-11130209D02*
X14243069Y-11149256D01*
X14243069Y-11149256D02*
X14252593Y-11158780D01*
X14252593Y-11158780D02*
X14271641Y-11168304D01*
X14271641Y-11168304D02*
X14309736Y-11168304D01*
X14309736Y-11168304D02*
X14328784Y-11158780D01*
X14328784Y-11158780D02*
X14338308Y-11149256D01*
X14338308Y-11149256D02*
X14347831Y-11130209D01*
X14347831Y-11130209D02*
X14347831Y-11082590D01*
X14347831Y-11082590D02*
X14338308Y-11063542D01*
X14338308Y-11063542D02*
X14328784Y-11054018D01*
X14328784Y-11054018D02*
X14309736Y-11044494D01*
X14309736Y-11044494D02*
X14271641Y-11044494D01*
X14271641Y-11044494D02*
X14252593Y-11054018D01*
X14252593Y-11054018D02*
X14243069Y-11063542D01*
X14243069Y-11063542D02*
X14233546Y-11082590D01*
X14585927Y-11168304D02*
X14585927Y-10968304D01*
X14671641Y-11168304D02*
X14671641Y-11063542D01*
X14671641Y-11063542D02*
X14662117Y-11044494D01*
X14662117Y-11044494D02*
X14643070Y-11034970D01*
X14643070Y-11034970D02*
X14614498Y-11034970D01*
X14614498Y-11034970D02*
X14595450Y-11044494D01*
X14595450Y-11044494D02*
X14585927Y-11054018D01*
X14795450Y-11168304D02*
X14776403Y-11158780D01*
X14776403Y-11158780D02*
X14766879Y-11149256D01*
X14766879Y-11149256D02*
X14757355Y-11130209D01*
X14757355Y-11130209D02*
X14757355Y-11073066D01*
X14757355Y-11073066D02*
X14766879Y-11054018D01*
X14766879Y-11054018D02*
X14776403Y-11044494D01*
X14776403Y-11044494D02*
X14795450Y-11034970D01*
X14795450Y-11034970D02*
X14824022Y-11034970D01*
X14824022Y-11034970D02*
X14843070Y-11044494D01*
X14843070Y-11044494D02*
X14852593Y-11054018D01*
X14852593Y-11054018D02*
X14862117Y-11073066D01*
X14862117Y-11073066D02*
X14862117Y-11130209D01*
X14862117Y-11130209D02*
X14852593Y-11149256D01*
X14852593Y-11149256D02*
X14843070Y-11158780D01*
X14843070Y-11158780D02*
X14824022Y-11168304D01*
X14824022Y-11168304D02*
X14795450Y-11168304D01*
X14976403Y-11168304D02*
X14957355Y-11158780D01*
X14957355Y-11158780D02*
X14947831Y-11139732D01*
X14947831Y-11139732D02*
X14947831Y-10968304D01*
X15128784Y-11158780D02*
X15109736Y-11168304D01*
X15109736Y-11168304D02*
X15071641Y-11168304D01*
X15071641Y-11168304D02*
X15052593Y-11158780D01*
X15052593Y-11158780D02*
X15043070Y-11139732D01*
X15043070Y-11139732D02*
X15043070Y-11063542D01*
X15043070Y-11063542D02*
X15052593Y-11044494D01*
X15052593Y-11044494D02*
X15071641Y-11034970D01*
X15071641Y-11034970D02*
X15109736Y-11034970D01*
X15109736Y-11034970D02*
X15128784Y-11044494D01*
X15128784Y-11044494D02*
X15138308Y-11063542D01*
X15138308Y-11063542D02*
X15138308Y-11082590D01*
X15138308Y-11082590D02*
X15043070Y-11101637D01*
X15214498Y-11158780D02*
X15233546Y-11168304D01*
X15233546Y-11168304D02*
X15271641Y-11168304D01*
X15271641Y-11168304D02*
X15290689Y-11158780D01*
X15290689Y-11158780D02*
X15300212Y-11139732D01*
X15300212Y-11139732D02*
X15300212Y-11130209D01*
X15300212Y-11130209D02*
X15290689Y-11111161D01*
X15290689Y-11111161D02*
X15271641Y-11101637D01*
X15271641Y-11101637D02*
X15243070Y-11101637D01*
X15243070Y-11101637D02*
X15224022Y-11092113D01*
X15224022Y-11092113D02*
X15214498Y-11073066D01*
X15214498Y-11073066D02*
X15214498Y-11063542D01*
X15214498Y-11063542D02*
X15224022Y-11044494D01*
X15224022Y-11044494D02*
X15243070Y-11034970D01*
X15243070Y-11034970D02*
X15271641Y-11034970D01*
X15271641Y-11034970D02*
X15290689Y-11044494D01*
X15366879Y-11244494D02*
X15376403Y-11234970D01*
X15376403Y-11234970D02*
X15395451Y-11206399D01*
X15395451Y-11206399D02*
X15404974Y-11187351D01*
X15404974Y-11187351D02*
X15414498Y-11158780D01*
X15414498Y-11158780D02*
X15424022Y-11111161D01*
X15424022Y-11111161D02*
X15424022Y-11073066D01*
X15424022Y-11073066D02*
X15414498Y-11025447D01*
X15414498Y-11025447D02*
X15404974Y-10996875D01*
X15404974Y-10996875D02*
X15395451Y-10977828D01*
X15395451Y-10977828D02*
X15376403Y-10949256D01*
X15376403Y-10949256D02*
X15366879Y-10939732D01*
M02*
