%TF.GenerationSoftware,KiCad,Pcbnew,8.0.4*%
%TF.CreationDate,2024-09-11T11:48:54+03:00*%
%TF.ProjectId,LPF_146MHz,4c50465f-3134-4364-9d48-7a2e6b696361,rev?*%
%TF.SameCoordinates,Original*%
%TF.FileFunction,Legend,Bot*%
%TF.FilePolarity,Positive*%
%FSLAX46Y46*%
G04 Gerber Fmt 4.6, Leading zero omitted, Abs format (unit mm)*
G04 Created by KiCad (PCBNEW 8.0.4) date 2024-09-11 11:48:54*
%MOMM*%
%LPD*%
G01*
G04 APERTURE LIST*
%ADD10C,0.100000*%
G04 APERTURE END LIST*
D10*
X126492915Y-102640819D02*
X126492915Y-101974152D01*
X126492915Y-102069390D02*
X126445296Y-102021771D01*
X126445296Y-102021771D02*
X126350058Y-101974152D01*
X126350058Y-101974152D02*
X126207201Y-101974152D01*
X126207201Y-101974152D02*
X126111963Y-102021771D01*
X126111963Y-102021771D02*
X126064344Y-102117009D01*
X126064344Y-102117009D02*
X126064344Y-102640819D01*
X126064344Y-102117009D02*
X126016725Y-102021771D01*
X126016725Y-102021771D02*
X125921487Y-101974152D01*
X125921487Y-101974152D02*
X125778630Y-101974152D01*
X125778630Y-101974152D02*
X125683391Y-102021771D01*
X125683391Y-102021771D02*
X125635772Y-102117009D01*
X125635772Y-102117009D02*
X125635772Y-102640819D01*
X124778630Y-102593200D02*
X124873868Y-102640819D01*
X124873868Y-102640819D02*
X125064344Y-102640819D01*
X125064344Y-102640819D02*
X125159582Y-102593200D01*
X125159582Y-102593200D02*
X125207201Y-102497961D01*
X125207201Y-102497961D02*
X125207201Y-102117009D01*
X125207201Y-102117009D02*
X125159582Y-102021771D01*
X125159582Y-102021771D02*
X125064344Y-101974152D01*
X125064344Y-101974152D02*
X124873868Y-101974152D01*
X124873868Y-101974152D02*
X124778630Y-102021771D01*
X124778630Y-102021771D02*
X124731011Y-102117009D01*
X124731011Y-102117009D02*
X124731011Y-102212247D01*
X124731011Y-102212247D02*
X125207201Y-102307485D01*
X123873868Y-102640819D02*
X123873868Y-102117009D01*
X123873868Y-102117009D02*
X123921487Y-102021771D01*
X123921487Y-102021771D02*
X124016725Y-101974152D01*
X124016725Y-101974152D02*
X124207201Y-101974152D01*
X124207201Y-101974152D02*
X124302439Y-102021771D01*
X123873868Y-102593200D02*
X123969106Y-102640819D01*
X123969106Y-102640819D02*
X124207201Y-102640819D01*
X124207201Y-102640819D02*
X124302439Y-102593200D01*
X124302439Y-102593200D02*
X124350058Y-102497961D01*
X124350058Y-102497961D02*
X124350058Y-102402723D01*
X124350058Y-102402723D02*
X124302439Y-102307485D01*
X124302439Y-102307485D02*
X124207201Y-102259866D01*
X124207201Y-102259866D02*
X123969106Y-102259866D01*
X123969106Y-102259866D02*
X123873868Y-102212247D01*
X123445296Y-102593200D02*
X123350058Y-102640819D01*
X123350058Y-102640819D02*
X123159582Y-102640819D01*
X123159582Y-102640819D02*
X123064344Y-102593200D01*
X123064344Y-102593200D02*
X123016725Y-102497961D01*
X123016725Y-102497961D02*
X123016725Y-102450342D01*
X123016725Y-102450342D02*
X123064344Y-102355104D01*
X123064344Y-102355104D02*
X123159582Y-102307485D01*
X123159582Y-102307485D02*
X123302439Y-102307485D01*
X123302439Y-102307485D02*
X123397677Y-102259866D01*
X123397677Y-102259866D02*
X123445296Y-102164628D01*
X123445296Y-102164628D02*
X123445296Y-102117009D01*
X123445296Y-102117009D02*
X123397677Y-102021771D01*
X123397677Y-102021771D02*
X123302439Y-101974152D01*
X123302439Y-101974152D02*
X123159582Y-101974152D01*
X123159582Y-101974152D02*
X123064344Y-102021771D01*
X121826248Y-101974152D02*
X121064344Y-102259866D01*
X121064344Y-102259866D02*
X121826248Y-102545580D01*
X119826248Y-102259866D02*
X119064344Y-102259866D01*
X118683391Y-101640819D02*
X118064344Y-101640819D01*
X118064344Y-101640819D02*
X118397677Y-102021771D01*
X118397677Y-102021771D02*
X118254820Y-102021771D01*
X118254820Y-102021771D02*
X118159582Y-102069390D01*
X118159582Y-102069390D02*
X118111963Y-102117009D01*
X118111963Y-102117009D02*
X118064344Y-102212247D01*
X118064344Y-102212247D02*
X118064344Y-102450342D01*
X118064344Y-102450342D02*
X118111963Y-102545580D01*
X118111963Y-102545580D02*
X118159582Y-102593200D01*
X118159582Y-102593200D02*
X118254820Y-102640819D01*
X118254820Y-102640819D02*
X118540534Y-102640819D01*
X118540534Y-102640819D02*
X118635772Y-102593200D01*
X118635772Y-102593200D02*
X118683391Y-102545580D01*
X117445296Y-101640819D02*
X117350058Y-101640819D01*
X117350058Y-101640819D02*
X117254820Y-101688438D01*
X117254820Y-101688438D02*
X117207201Y-101736057D01*
X117207201Y-101736057D02*
X117159582Y-101831295D01*
X117159582Y-101831295D02*
X117111963Y-102021771D01*
X117111963Y-102021771D02*
X117111963Y-102259866D01*
X117111963Y-102259866D02*
X117159582Y-102450342D01*
X117159582Y-102450342D02*
X117207201Y-102545580D01*
X117207201Y-102545580D02*
X117254820Y-102593200D01*
X117254820Y-102593200D02*
X117350058Y-102640819D01*
X117350058Y-102640819D02*
X117445296Y-102640819D01*
X117445296Y-102640819D02*
X117540534Y-102593200D01*
X117540534Y-102593200D02*
X117588153Y-102545580D01*
X117588153Y-102545580D02*
X117635772Y-102450342D01*
X117635772Y-102450342D02*
X117683391Y-102259866D01*
X117683391Y-102259866D02*
X117683391Y-102021771D01*
X117683391Y-102021771D02*
X117635772Y-101831295D01*
X117635772Y-101831295D02*
X117588153Y-101736057D01*
X117588153Y-101736057D02*
X117540534Y-101688438D01*
X117540534Y-101688438D02*
X117445296Y-101640819D01*
X115492915Y-102640819D02*
X115492915Y-101640819D01*
X115492915Y-102593200D02*
X115588153Y-102640819D01*
X115588153Y-102640819D02*
X115778629Y-102640819D01*
X115778629Y-102640819D02*
X115873867Y-102593200D01*
X115873867Y-102593200D02*
X115921486Y-102545580D01*
X115921486Y-102545580D02*
X115969105Y-102450342D01*
X115969105Y-102450342D02*
X115969105Y-102164628D01*
X115969105Y-102164628D02*
X115921486Y-102069390D01*
X115921486Y-102069390D02*
X115873867Y-102021771D01*
X115873867Y-102021771D02*
X115778629Y-101974152D01*
X115778629Y-101974152D02*
X115588153Y-101974152D01*
X115588153Y-101974152D02*
X115492915Y-102021771D01*
X114683391Y-102117009D02*
X114540534Y-102164628D01*
X114540534Y-102164628D02*
X114492915Y-102212247D01*
X114492915Y-102212247D02*
X114445296Y-102307485D01*
X114445296Y-102307485D02*
X114445296Y-102450342D01*
X114445296Y-102450342D02*
X114492915Y-102545580D01*
X114492915Y-102545580D02*
X114540534Y-102593200D01*
X114540534Y-102593200D02*
X114635772Y-102640819D01*
X114635772Y-102640819D02*
X115016724Y-102640819D01*
X115016724Y-102640819D02*
X115016724Y-101640819D01*
X115016724Y-101640819D02*
X114683391Y-101640819D01*
X114683391Y-101640819D02*
X114588153Y-101688438D01*
X114588153Y-101688438D02*
X114540534Y-101736057D01*
X114540534Y-101736057D02*
X114492915Y-101831295D01*
X114492915Y-101831295D02*
X114492915Y-101926533D01*
X114492915Y-101926533D02*
X114540534Y-102021771D01*
X114540534Y-102021771D02*
X114588153Y-102069390D01*
X114588153Y-102069390D02*
X114683391Y-102117009D01*
X114683391Y-102117009D02*
X115016724Y-102117009D01*
X114016724Y-102640819D02*
X114016724Y-101974152D01*
X114016724Y-102069390D02*
X113969105Y-102021771D01*
X113969105Y-102021771D02*
X113873867Y-101974152D01*
X113873867Y-101974152D02*
X113731010Y-101974152D01*
X113731010Y-101974152D02*
X113635772Y-102021771D01*
X113635772Y-102021771D02*
X113588153Y-102117009D01*
X113588153Y-102117009D02*
X113588153Y-102640819D01*
X113588153Y-102117009D02*
X113540534Y-102021771D01*
X113540534Y-102021771D02*
X113445296Y-101974152D01*
X113445296Y-101974152D02*
X113302439Y-101974152D01*
X113302439Y-101974152D02*
X113207200Y-102021771D01*
X113207200Y-102021771D02*
X113159581Y-102117009D01*
X113159581Y-102117009D02*
X113159581Y-102640819D01*
X134300306Y-101116819D02*
X134871734Y-101116819D01*
X134586020Y-101116819D02*
X134586020Y-100116819D01*
X134586020Y-100116819D02*
X134681258Y-100259676D01*
X134681258Y-100259676D02*
X134776496Y-100354914D01*
X134776496Y-100354914D02*
X134871734Y-100402533D01*
X133443163Y-100450152D02*
X133443163Y-101116819D01*
X133681258Y-100069200D02*
X133919353Y-100783485D01*
X133919353Y-100783485D02*
X133300306Y-100783485D01*
X132490782Y-100116819D02*
X132681258Y-100116819D01*
X132681258Y-100116819D02*
X132776496Y-100164438D01*
X132776496Y-100164438D02*
X132824115Y-100212057D01*
X132824115Y-100212057D02*
X132919353Y-100354914D01*
X132919353Y-100354914D02*
X132966972Y-100545390D01*
X132966972Y-100545390D02*
X132966972Y-100926342D01*
X132966972Y-100926342D02*
X132919353Y-101021580D01*
X132919353Y-101021580D02*
X132871734Y-101069200D01*
X132871734Y-101069200D02*
X132776496Y-101116819D01*
X132776496Y-101116819D02*
X132586020Y-101116819D01*
X132586020Y-101116819D02*
X132490782Y-101069200D01*
X132490782Y-101069200D02*
X132443163Y-101021580D01*
X132443163Y-101021580D02*
X132395544Y-100926342D01*
X132395544Y-100926342D02*
X132395544Y-100688247D01*
X132395544Y-100688247D02*
X132443163Y-100593009D01*
X132443163Y-100593009D02*
X132490782Y-100545390D01*
X132490782Y-100545390D02*
X132586020Y-100497771D01*
X132586020Y-100497771D02*
X132776496Y-100497771D01*
X132776496Y-100497771D02*
X132871734Y-100545390D01*
X132871734Y-100545390D02*
X132919353Y-100593009D01*
X132919353Y-100593009D02*
X132966972Y-100688247D01*
X131966972Y-101116819D02*
X131966972Y-100116819D01*
X131966972Y-100116819D02*
X131633639Y-100831104D01*
X131633639Y-100831104D02*
X131300306Y-100116819D01*
X131300306Y-100116819D02*
X131300306Y-101116819D01*
X130824115Y-101116819D02*
X130824115Y-100116819D01*
X130824115Y-100593009D02*
X130252687Y-100593009D01*
X130252687Y-101116819D02*
X130252687Y-100116819D01*
X129871734Y-100450152D02*
X129347925Y-100450152D01*
X129347925Y-100450152D02*
X129871734Y-101116819D01*
X129871734Y-101116819D02*
X129347925Y-101116819D01*
X128347924Y-100450152D02*
X127966972Y-100450152D01*
X128205067Y-101116819D02*
X128205067Y-100259676D01*
X128205067Y-100259676D02*
X128157448Y-100164438D01*
X128157448Y-100164438D02*
X128062210Y-100116819D01*
X128062210Y-100116819D02*
X127966972Y-100116819D01*
X127633638Y-101116819D02*
X127633638Y-100450152D01*
X127633638Y-100116819D02*
X127681257Y-100164438D01*
X127681257Y-100164438D02*
X127633638Y-100212057D01*
X127633638Y-100212057D02*
X127586019Y-100164438D01*
X127586019Y-100164438D02*
X127633638Y-100116819D01*
X127633638Y-100116819D02*
X127633638Y-100212057D01*
X127014591Y-101116819D02*
X127109829Y-101069200D01*
X127109829Y-101069200D02*
X127157448Y-100973961D01*
X127157448Y-100973961D02*
X127157448Y-100116819D01*
X126776495Y-100450152D02*
X126395543Y-100450152D01*
X126633638Y-100116819D02*
X126633638Y-100973961D01*
X126633638Y-100973961D02*
X126586019Y-101069200D01*
X126586019Y-101069200D02*
X126490781Y-101116819D01*
X126490781Y-101116819D02*
X126395543Y-101116819D01*
X125681257Y-101069200D02*
X125776495Y-101116819D01*
X125776495Y-101116819D02*
X125966971Y-101116819D01*
X125966971Y-101116819D02*
X126062209Y-101069200D01*
X126062209Y-101069200D02*
X126109828Y-100973961D01*
X126109828Y-100973961D02*
X126109828Y-100593009D01*
X126109828Y-100593009D02*
X126062209Y-100497771D01*
X126062209Y-100497771D02*
X125966971Y-100450152D01*
X125966971Y-100450152D02*
X125776495Y-100450152D01*
X125776495Y-100450152D02*
X125681257Y-100497771D01*
X125681257Y-100497771D02*
X125633638Y-100593009D01*
X125633638Y-100593009D02*
X125633638Y-100688247D01*
X125633638Y-100688247D02*
X126109828Y-100783485D01*
X125205066Y-101116819D02*
X125205066Y-100450152D01*
X125205066Y-100640628D02*
X125157447Y-100545390D01*
X125157447Y-100545390D02*
X125109828Y-100497771D01*
X125109828Y-100497771D02*
X125014590Y-100450152D01*
X125014590Y-100450152D02*
X124919352Y-100450152D01*
X123824113Y-100735866D02*
X123062209Y-100735866D01*
X123443161Y-101116819D02*
X123443161Y-100354914D01*
X121871733Y-100069200D02*
X122728875Y-101354914D01*
X121538399Y-100735866D02*
X120776495Y-100735866D01*
X119586018Y-100212057D02*
X119538399Y-100164438D01*
X119538399Y-100164438D02*
X119443161Y-100116819D01*
X119443161Y-100116819D02*
X119205066Y-100116819D01*
X119205066Y-100116819D02*
X119109828Y-100164438D01*
X119109828Y-100164438D02*
X119062209Y-100212057D01*
X119062209Y-100212057D02*
X119014590Y-100307295D01*
X119014590Y-100307295D02*
X119014590Y-100402533D01*
X119014590Y-100402533D02*
X119062209Y-100545390D01*
X119062209Y-100545390D02*
X119633637Y-101116819D01*
X119633637Y-101116819D02*
X119014590Y-101116819D01*
X118395542Y-100116819D02*
X118300304Y-100116819D01*
X118300304Y-100116819D02*
X118205066Y-100164438D01*
X118205066Y-100164438D02*
X118157447Y-100212057D01*
X118157447Y-100212057D02*
X118109828Y-100307295D01*
X118109828Y-100307295D02*
X118062209Y-100497771D01*
X118062209Y-100497771D02*
X118062209Y-100735866D01*
X118062209Y-100735866D02*
X118109828Y-100926342D01*
X118109828Y-100926342D02*
X118157447Y-101021580D01*
X118157447Y-101021580D02*
X118205066Y-101069200D01*
X118205066Y-101069200D02*
X118300304Y-101116819D01*
X118300304Y-101116819D02*
X118395542Y-101116819D01*
X118395542Y-101116819D02*
X118490780Y-101069200D01*
X118490780Y-101069200D02*
X118538399Y-101021580D01*
X118538399Y-101021580D02*
X118586018Y-100926342D01*
X118586018Y-100926342D02*
X118633637Y-100735866D01*
X118633637Y-100735866D02*
X118633637Y-100497771D01*
X118633637Y-100497771D02*
X118586018Y-100307295D01*
X118586018Y-100307295D02*
X118538399Y-100212057D01*
X118538399Y-100212057D02*
X118490780Y-100164438D01*
X118490780Y-100164438D02*
X118395542Y-100116819D01*
X116871732Y-101116819D02*
X116871732Y-100116819D01*
X116871732Y-100116819D02*
X116538399Y-100831104D01*
X116538399Y-100831104D02*
X116205066Y-100116819D01*
X116205066Y-100116819D02*
X116205066Y-101116819D01*
X115728875Y-101116819D02*
X115728875Y-100116819D01*
X115728875Y-100593009D02*
X115157447Y-100593009D01*
X115157447Y-101116819D02*
X115157447Y-100116819D01*
X114776494Y-100450152D02*
X114252685Y-100450152D01*
X114252685Y-100450152D02*
X114776494Y-101116819D01*
X114776494Y-101116819D02*
X114252685Y-101116819D01*
X113109827Y-101116819D02*
X113109827Y-100450152D01*
X113109827Y-100116819D02*
X113157446Y-100164438D01*
X113157446Y-100164438D02*
X113109827Y-100212057D01*
X113109827Y-100212057D02*
X113062208Y-100164438D01*
X113062208Y-100164438D02*
X113109827Y-100116819D01*
X113109827Y-100116819D02*
X113109827Y-100212057D01*
X112633637Y-100450152D02*
X112633637Y-101116819D01*
X112633637Y-100545390D02*
X112586018Y-100497771D01*
X112586018Y-100497771D02*
X112490780Y-100450152D01*
X112490780Y-100450152D02*
X112347923Y-100450152D01*
X112347923Y-100450152D02*
X112252685Y-100497771D01*
X112252685Y-100497771D02*
X112205066Y-100593009D01*
X112205066Y-100593009D02*
X112205066Y-101116819D01*
X110966970Y-101116819D02*
X110966970Y-100116819D01*
X110966970Y-100497771D02*
X110871732Y-100450152D01*
X110871732Y-100450152D02*
X110681256Y-100450152D01*
X110681256Y-100450152D02*
X110586018Y-100497771D01*
X110586018Y-100497771D02*
X110538399Y-100545390D01*
X110538399Y-100545390D02*
X110490780Y-100640628D01*
X110490780Y-100640628D02*
X110490780Y-100926342D01*
X110490780Y-100926342D02*
X110538399Y-101021580D01*
X110538399Y-101021580D02*
X110586018Y-101069200D01*
X110586018Y-101069200D02*
X110681256Y-101116819D01*
X110681256Y-101116819D02*
X110871732Y-101116819D01*
X110871732Y-101116819D02*
X110966970Y-101069200D01*
X109633637Y-101116819D02*
X109633637Y-100593009D01*
X109633637Y-100593009D02*
X109681256Y-100497771D01*
X109681256Y-100497771D02*
X109776494Y-100450152D01*
X109776494Y-100450152D02*
X109966970Y-100450152D01*
X109966970Y-100450152D02*
X110062208Y-100497771D01*
X109633637Y-101069200D02*
X109728875Y-101116819D01*
X109728875Y-101116819D02*
X109966970Y-101116819D01*
X109966970Y-101116819D02*
X110062208Y-101069200D01*
X110062208Y-101069200D02*
X110109827Y-100973961D01*
X110109827Y-100973961D02*
X110109827Y-100878723D01*
X110109827Y-100878723D02*
X110062208Y-100783485D01*
X110062208Y-100783485D02*
X109966970Y-100735866D01*
X109966970Y-100735866D02*
X109728875Y-100735866D01*
X109728875Y-100735866D02*
X109633637Y-100688247D01*
X109157446Y-100450152D02*
X109157446Y-101116819D01*
X109157446Y-100545390D02*
X109109827Y-100497771D01*
X109109827Y-100497771D02*
X109014589Y-100450152D01*
X109014589Y-100450152D02*
X108871732Y-100450152D01*
X108871732Y-100450152D02*
X108776494Y-100497771D01*
X108776494Y-100497771D02*
X108728875Y-100593009D01*
X108728875Y-100593009D02*
X108728875Y-101116819D01*
X107824113Y-101116819D02*
X107824113Y-100116819D01*
X107824113Y-101069200D02*
X107919351Y-101116819D01*
X107919351Y-101116819D02*
X108109827Y-101116819D01*
X108109827Y-101116819D02*
X108205065Y-101069200D01*
X108205065Y-101069200D02*
X108252684Y-101021580D01*
X108252684Y-101021580D02*
X108300303Y-100926342D01*
X108300303Y-100926342D02*
X108300303Y-100640628D01*
X108300303Y-100640628D02*
X108252684Y-100545390D01*
X108252684Y-100545390D02*
X108205065Y-100497771D01*
X108205065Y-100497771D02*
X108109827Y-100450152D01*
X108109827Y-100450152D02*
X107919351Y-100450152D01*
X107919351Y-100450152D02*
X107824113Y-100497771D01*
X107443160Y-100450152D02*
X107252684Y-101116819D01*
X107252684Y-101116819D02*
X107062208Y-100640628D01*
X107062208Y-100640628D02*
X106871732Y-101116819D01*
X106871732Y-101116819D02*
X106681256Y-100450152D01*
X106300303Y-101116819D02*
X106300303Y-100450152D01*
X106300303Y-100116819D02*
X106347922Y-100164438D01*
X106347922Y-100164438D02*
X106300303Y-100212057D01*
X106300303Y-100212057D02*
X106252684Y-100164438D01*
X106252684Y-100164438D02*
X106300303Y-100116819D01*
X106300303Y-100116819D02*
X106300303Y-100212057D01*
X105966970Y-100450152D02*
X105586018Y-100450152D01*
X105824113Y-100116819D02*
X105824113Y-100973961D01*
X105824113Y-100973961D02*
X105776494Y-101069200D01*
X105776494Y-101069200D02*
X105681256Y-101116819D01*
X105681256Y-101116819D02*
X105586018Y-101116819D01*
X105252684Y-101116819D02*
X105252684Y-100116819D01*
X104824113Y-101116819D02*
X104824113Y-100593009D01*
X104824113Y-100593009D02*
X104871732Y-100497771D01*
X104871732Y-100497771D02*
X104966970Y-100450152D01*
X104966970Y-100450152D02*
X105109827Y-100450152D01*
X105109827Y-100450152D02*
X105205065Y-100497771D01*
X105205065Y-100497771D02*
X105252684Y-100545390D01*
X104347922Y-101021580D02*
X104300303Y-101069200D01*
X104300303Y-101069200D02*
X104347922Y-101116819D01*
X104347922Y-101116819D02*
X104395541Y-101069200D01*
X104395541Y-101069200D02*
X104347922Y-101021580D01*
X104347922Y-101021580D02*
X104347922Y-101116819D01*
M02*
