%TF.GenerationSoftware,KiCad,Pcbnew,8.0.4*%
%TF.CreationDate,2024-09-11T11:48:54+03:00*%
%TF.ProjectId,LPF_146MHz,4c50465f-3134-4364-9d48-7a2e6b696361,rev?*%
%TF.SameCoordinates,Original*%
%TF.FileFunction,Copper,L1,Top*%
%TF.FilePolarity,Positive*%
%FSLAX46Y46*%
G04 Gerber Fmt 4.6, Leading zero omitted, Abs format (unit mm)*
G04 Created by KiCad (PCBNEW 8.0.4) date 2024-09-11 11:48:54*
%MOMM*%
%LPD*%
G01*
G04 APERTURE LIST*
G04 Aperture macros list*
%AMRoundRect*
0 Rectangle with rounded corners*
0 $1 Rounding radius*
0 $2 $3 $4 $5 $6 $7 $8 $9 X,Y pos of 4 corners*
0 Add a 4 corners polygon primitive as box body*
4,1,4,$2,$3,$4,$5,$6,$7,$8,$9,$2,$3,0*
0 Add four circle primitives for the rounded corners*
1,1,$1+$1,$2,$3*
1,1,$1+$1,$4,$5*
1,1,$1+$1,$6,$7*
1,1,$1+$1,$8,$9*
0 Add four rect primitives between the rounded corners*
20,1,$1+$1,$2,$3,$4,$5,0*
20,1,$1+$1,$4,$5,$6,$7,0*
20,1,$1+$1,$6,$7,$8,$9,0*
20,1,$1+$1,$8,$9,$2,$3,0*%
G04 Aperture macros list end*
%TA.AperFunction,SMDPad,CuDef*%
%ADD10R,2.000000X2.250000*%
%TD*%
%TA.AperFunction,SMDPad,CuDef*%
%ADD11R,3.000000X1.250000*%
%TD*%
%TA.AperFunction,SMDPad,CuDef*%
%ADD12RoundRect,0.218750X-0.218750X-0.256250X0.218750X-0.256250X0.218750X0.256250X-0.218750X0.256250X0*%
%TD*%
%TA.AperFunction,SMDPad,CuDef*%
%ADD13RoundRect,0.225000X-0.250000X0.225000X-0.250000X-0.225000X0.250000X-0.225000X0.250000X0.225000X0*%
%TD*%
%TA.AperFunction,ViaPad*%
%ADD14C,0.600000*%
%TD*%
%TA.AperFunction,Conductor*%
%ADD15C,1.000000*%
%TD*%
%TA.AperFunction,Conductor*%
%ADD16C,0.200000*%
%TD*%
%TA.AperFunction,Conductor*%
%ADD17C,2.200000*%
%TD*%
G04 APERTURE END LIST*
D10*
%TO.P,J2,1,In*%
%TO.N,Net-(J2-In)*%
X134686800Y-100736400D03*
D11*
%TO.P,J2,2,Ext*%
%TO.N,GND*%
X134186800Y-103236400D03*
X134186800Y-98236400D03*
%TD*%
D10*
%TO.P,J1,1,In*%
%TO.N,Net-(J1-In)*%
X105062400Y-100725600D03*
D11*
%TO.P,J1,2,Ext*%
%TO.N,GND*%
X105562400Y-98225600D03*
X105562400Y-103225600D03*
%TD*%
D12*
%TO.P,L5,1,1*%
%TO.N,Net-(L3-Pad2)*%
X130276500Y-100736400D03*
%TO.P,L5,2,2*%
%TO.N,Net-(J2-In)*%
X131851500Y-100736400D03*
%TD*%
D13*
%TO.P,C6,1*%
%TO.N,Net-(C4-Pad1)*%
X122596200Y-100722200D03*
%TO.P,C6,2*%
%TO.N,GND*%
X122596200Y-102272200D03*
%TD*%
%TO.P,C3,1*%
%TO.N,Net-(C1-Pad1)*%
X114858800Y-100710400D03*
%TO.P,C3,2*%
%TO.N,GND*%
X114858800Y-102260400D03*
%TD*%
D12*
%TO.P,L1,2,2*%
%TO.N,Net-(C1-Pad1)*%
X113335000Y-100736400D03*
%TO.P,L1,1,1*%
%TO.N,Net-(L1-Pad1)*%
X111760000Y-100736400D03*
%TD*%
D13*
%TO.P,C5,1*%
%TO.N,Net-(C4-Pad1)*%
X124155200Y-100723400D03*
%TO.P,C5,2*%
%TO.N,GND*%
X124155200Y-102273400D03*
%TD*%
%TO.P,C1,1*%
%TO.N,Net-(C1-Pad1)*%
X118008400Y-100710400D03*
%TO.P,C1,2*%
%TO.N,GND*%
X118008400Y-102260400D03*
%TD*%
D12*
%TO.P,L3,1,1*%
%TO.N,Net-(C4-Pad1)*%
X127228500Y-100736400D03*
%TO.P,L3,2,2*%
%TO.N,Net-(L3-Pad2)*%
X128803500Y-100736400D03*
%TD*%
D13*
%TO.P,C2,1*%
%TO.N,Net-(C1-Pad1)*%
X116454400Y-100710400D03*
%TO.P,C2,2*%
%TO.N,GND*%
X116454400Y-102260400D03*
%TD*%
D12*
%TO.P,L4,1,1*%
%TO.N,Net-(J1-In)*%
X108737300Y-100736400D03*
%TO.P,L4,2,2*%
%TO.N,Net-(L1-Pad1)*%
X110312300Y-100736400D03*
%TD*%
D13*
%TO.P,C4,1*%
%TO.N,Net-(C4-Pad1)*%
X125695000Y-100723400D03*
%TO.P,C4,2*%
%TO.N,GND*%
X125695000Y-102273400D03*
%TD*%
D12*
%TO.P,L2,1,1*%
%TO.N,Net-(C1-Pad1)*%
X119506900Y-100736400D03*
%TO.P,L2,2,2*%
%TO.N,Net-(C4-Pad1)*%
X121081900Y-100736400D03*
%TD*%
D14*
%TO.N,GND*%
X132181600Y-103225600D03*
X132029200Y-98247200D03*
X107543600Y-103225600D03*
X107696000Y-98196400D03*
X126034800Y-103276400D03*
X125323600Y-103276400D03*
X124510800Y-103276400D03*
X123799600Y-103276400D03*
X122936000Y-103276400D03*
X122224800Y-103276400D03*
X118364000Y-103276400D03*
X117652800Y-103276400D03*
X116840000Y-103276400D03*
X116128800Y-103276400D03*
X115214400Y-103276400D03*
X114503200Y-103276400D03*
%TD*%
D15*
%TO.N,GND*%
X132192400Y-103236400D02*
X132181600Y-103225600D01*
X134186800Y-103236400D02*
X132192400Y-103236400D01*
X132040000Y-98236400D02*
X132029200Y-98247200D01*
X134186800Y-98236400D02*
X132040000Y-98236400D01*
X105562400Y-103225600D02*
X107543600Y-103225600D01*
X107666800Y-98225600D02*
X107696000Y-98196400D01*
X105562400Y-98225600D02*
X107666800Y-98225600D01*
D16*
X125679200Y-102920800D02*
X126034800Y-103276400D01*
X125679200Y-102920800D02*
X125323600Y-103276400D01*
X125679200Y-102260400D02*
X125679200Y-102920800D01*
X124155200Y-102920800D02*
X124510800Y-103276400D01*
X124155200Y-102920800D02*
X123799600Y-103276400D01*
X124155200Y-102260400D02*
X124155200Y-102920800D01*
X122580400Y-102920800D02*
X122936000Y-103276400D01*
X122580400Y-102920800D02*
X122224800Y-103276400D01*
X122580400Y-102260400D02*
X122580400Y-102920800D01*
X118008400Y-102920800D02*
X118364000Y-103276400D01*
X118008400Y-102920800D02*
X117652800Y-103276400D01*
X118008400Y-102260400D02*
X118008400Y-102920800D01*
X116484400Y-102920800D02*
X116840000Y-103276400D01*
X116484400Y-102920800D02*
X116128800Y-103276400D01*
X116484400Y-102260400D02*
X116484400Y-102920800D01*
X114858800Y-102920800D02*
X115214400Y-103276400D01*
X114858800Y-102920800D02*
X114503200Y-103276400D01*
X114858800Y-102260400D02*
X114858800Y-102920800D01*
D17*
%TO.N,Net-(J1-In)*%
X105062400Y-100725600D02*
X108142400Y-100725600D01*
X108142400Y-100725600D02*
X108153200Y-100736400D01*
%TO.N,Net-(J2-In)*%
X134686800Y-100736400D02*
X132486400Y-100736400D01*
D15*
%TO.N,Net-(L3-Pad2)*%
X128803500Y-100736400D02*
X130276500Y-100736400D01*
%TO.N,Net-(C4-Pad1)*%
X127215500Y-100723400D02*
X127228500Y-100736400D01*
X125695000Y-100723400D02*
X127215500Y-100723400D01*
X125682000Y-100736400D02*
X125695000Y-100723400D01*
X121081900Y-100736400D02*
X125682000Y-100736400D01*
%TO.N,Net-(C1-Pad1)*%
X118034400Y-100736400D02*
X118008400Y-100710400D01*
X119506900Y-100736400D02*
X118034400Y-100736400D01*
X117982400Y-100736400D02*
X118008400Y-100710400D01*
X113335000Y-100736400D02*
X117982400Y-100736400D01*
%TO.N,Net-(L1-Pad1)*%
X110312300Y-100736400D02*
X111760000Y-100736400D01*
%TD*%
%TA.AperFunction,Conductor*%
%TO.N,GND*%
G36*
X118459439Y-101772085D02*
G01*
X118505194Y-101824889D01*
X118516400Y-101876400D01*
X118516400Y-102768402D01*
X118869654Y-103396408D01*
X118885365Y-103464488D01*
X118861774Y-103530255D01*
X118806372Y-103572827D01*
X118761579Y-103581200D01*
X114145036Y-103581200D01*
X114077997Y-103561515D01*
X114032242Y-103508711D01*
X114022298Y-103439553D01*
X114034126Y-103401747D01*
X114350800Y-102768400D01*
X114350800Y-101876400D01*
X114370485Y-101809361D01*
X114423289Y-101763606D01*
X114474800Y-101752400D01*
X118392400Y-101752400D01*
X118459439Y-101772085D01*
G37*
%TD.AperFunction*%
%TD*%
%TA.AperFunction,Conductor*%
%TO.N,GND*%
G36*
X126181039Y-101772085D02*
G01*
X126226794Y-101824889D01*
X126238000Y-101876400D01*
X126238000Y-102768402D01*
X126591254Y-103396408D01*
X126606965Y-103464488D01*
X126583374Y-103530255D01*
X126527972Y-103572827D01*
X126483179Y-103581200D01*
X121866636Y-103581200D01*
X121799597Y-103561515D01*
X121753842Y-103508711D01*
X121743898Y-103439553D01*
X121755726Y-103401747D01*
X122072400Y-102768400D01*
X122072400Y-101876400D01*
X122092085Y-101809361D01*
X122144889Y-101763606D01*
X122196400Y-101752400D01*
X126114000Y-101752400D01*
X126181039Y-101772085D01*
G37*
%TD.AperFunction*%
%TD*%
M02*
